<?xml version="1.0" standalone="no"?>
<!DOCTYPE svg PUBLIC "-//W3C//DTD SVG 20010904//EN"
 "http://www.w3.org/TR/2001/REC-SVG-20010904/DTD/svg10.dtd">
<svg version="1.0" xmlns="http://www.w3.org/2000/svg"
 width="512.000000pt" height="512.000000pt" viewBox="0 0 512.000000 512.000000"
 preserveAspectRatio="xMidYMid meet">
<metadata>
Created by potrace 1.16, written by Peter Selinger 2001-2019
</metadata>
<g transform="translate(0.000000,512.000000) scale(0.100000,-0.100000)"
fill="#000000" stroke="none">
<path d="M2503 4757 c103 -144 134 -274 106 -446 -16 -98 -20 -102 -35 -31
-23 110 -77 204 -168 296 -45 45 -92 87 -105 94 -13 6 9 -18 48 -55 39 -38 70
-73 68 -79 -2 -6 6 -31 18 -56 38 -75 55 -138 82 -290 41 -239 45 -287 34
-373 -6 -43 -19 -97 -29 -120 -16 -38 -17 -49 -6 -104 14 -66 33 -259 36 -363
1 -41 3 -50 5 -25 19 240 37 360 64 428 9 22 8 36 -9 75 -12 27 -26 89 -32
138 -11 84 -10 98 19 239 16 83 37 202 46 265 29 212 130 361 265 391 50 11
92 1 210 -50 47 -21 96 -42 109 -47 23 -10 20 -13 -52 -58 -90 -56 -109 -76
-34 -36 28 15 97 42 153 59 83 25 106 29 135 21 18 -6 65 -9 104 -9 l70 2
-100 11 c-76 9 -93 13 -72 19 39 11 117 88 117 117 0 21 -2 20 -22 -10 -44
-65 -69 -75 -176 -75 -90 0 -105 3 -209 43 -143 54 -201 56 -291 11 -67 -33
-127 -94 -169 -171 l-26 -48 -49 92 c-46 88 -111 182 -145 210 -8 7 10 -22 40
-65z m-20 -320 c42 -85 63 -171 72 -287 10 -116 -5 -94 -21 32 -16 125 -45
225 -87 298 -17 30 -24 49 -15 42 9 -7 32 -45 51 -85z m84 -749 c-2 -18 -4 -6
-4 27 0 33 2 48 4 33 2 -15 2 -42 0 -60z"/>
<path d="M1580 4750 c1 -25 26 -62 51 -76 22 -12 16 -13 -53 -14 -75 0 -77 1
-103 33 -25 31 -26 31 -13 4 19 -45 54 -57 171 -57 91 0 117 -4 218 -36 133
-42 168 -59 267 -127 140 -96 224 -221 256 -379 25 -121 24 -124 -27 -85 -44
33 -83 52 -179 87 -34 13 -68 34 -83 51 -14 17 -25 25 -25 19 0 -23 48 -57
125 -89 95 -39 137 -64 189 -111 25 -22 35 -28 29 -15 -6 11 -8 26 -6 33 8 21
-16 167 -38 230 -53 154 -222 316 -399 382 l-64 24 55 12 c30 7 77 22 104 34
83 36 195 70 234 71 20 1 47 5 61 10 16 6 -8 7 -70 5 -80 -4 -114 -11 -215
-46 -112 -40 -127 -42 -225 -43 -138 0 -213 21 -240 66 -11 18 -20 25 -20 17z"/>
<path d="M2952 4693 c-23 -33 -62 -109 -62 -120 0 -4 16 20 34 55 19 35 40 69
46 77 7 8 10 15 7 15 -3 0 -14 -12 -25 -27z"/>
<path d="M2126 4610 c28 -17 73 -49 100 -72 41 -35 44 -37 19 -9 -32 36 -141
111 -159 111 -6 0 12 -14 40 -30z"/>
<path d="M3045 4562 c-94 -61 -163 -128 -210 -202 -40 -63 -84 -190 -90 -258
l-5 -57 14 60 c49 207 139 339 312 455 64 44 83 60 71 60 -1 0 -43 -26 -92
-58z"/>
<path d="M1395 4591 c-34 -7 -28 -8 41 -10 109 -1 220 -31 333 -88 99 -49 208
-140 237 -196 9 -16 18 -26 21 -23 9 8 -38 75 -88 125 -95 95 -306 190 -434
196 -38 2 -88 0 -110 -4z"/>
<path d="M3585 4590 c-98 -15 -266 -86 -362 -151 -91 -63 -173 -165 -187 -234
-5 -25 -2 -22 18 16 87 163 397 349 583 349 l37 0 -61 -37 c-33 -21 -74 -48
-89 -61 l-29 -23 34 17 c19 9 64 35 100 57 53 33 82 43 146 53 l80 12 -81 1
c-45 0 -94 3 -110 5 -16 2 -51 1 -79 -4z"/>
<path d="M1436 4551 c-3 -5 12 -11 34 -14 22 -3 79 -25 127 -48 108 -54 112
-55 93 -36 -8 9 -40 30 -70 46 -57 32 -63 43 -7 15 45 -23 97 -63 94 -73 -3
-12 51 -54 112 -87 67 -36 96 -73 116 -149 19 -74 19 -144 1 -215 -20 -78 -11
-74 13 5 23 73 27 150 11 205 l-10 35 41 -45 41 -45 -28 40 c-65 93 -119 147
-175 175 -37 19 -63 41 -77 64 -27 46 -113 102 -187 121 -66 17 -121 20 -129
6z m305 -128 c13 -16 12 -17 -3 -4 -10 7 -18 15 -18 17 0 8 8 3 21 -13z"/>
<path d="M1170 4437 c-165 -32 -239 -127 -248 -318 -8 -173 67 -407 161 -500
l46 -45 -125 -148 c-131 -155 -127 -162 16 -29 64 59 79 70 63 43 -42 -67
-136 -150 -212 -188 -61 -30 -88 -37 -149 -41 l-75 -3 34 -15 c19 -8 62 -17
95 -20 l61 -6 -53 -79 c-56 -85 -104 -196 -129 -300 -21 -91 -18 -113 7 -41
13 39 40 87 75 130 48 60 49 62 9 18 -25 -27 -46 -45 -46 -40 0 25 103 216
145 268 42 53 48 57 88 57 23 0 53 3 67 6 22 5 21 2 -15 -31 -34 -31 -35 -34
-10 -19 17 10 63 44 103 76 86 68 103 78 221 123 130 49 200 87 259 140 50 45
51 45 41 17 -25 -71 -147 -163 -280 -210 -102 -37 -91 -42 16 -7 85 28 157 72
229 138 25 24 49 41 53 38 3 -3 3 0 -1 7 -12 21 47 130 111 205 146 171 154
182 174 247 31 100 28 167 -10 244 -37 77 -134 171 -213 209 -132 65 -375 100
-508 74z m339 -44 c40 -9 90 -28 110 -41 32 -22 34 -22 17 -3 -28 31 -8 26 54
-15 154 -100 223 -218 200 -342 -20 -113 -57 -166 -238 -339 -230 -220 -263
-242 -463 -312 -63 -21 -130 -46 -149 -54 -78 -33 -82 -30 -28 21 29 28 91
102 138 165 l85 115 45 3 45 2 -40 8 c-33 6 -29 7 24 4 109 -6 236 41 298 109
l28 31 -30 -27 c-70 -62 -188 -101 -276 -91 l-46 5 78 41 c84 44 209 131 209
147 0 16 -82 32 -139 28 l-55 -5 30 23 c57 46 167 68 219 43 15 -7 8 -8 -25
-4 -25 2 -61 1 -80 -4 l-35 -9 30 -1 c17 -1 48 -8 70 -16 37 -13 41 -13 60 6
32 31 28 146 -7 221 -112 240 -434 266 -542 45 -37 -74 -51 -196 -38 -326 7
-79 14 -109 31 -131 12 -17 16 -27 8 -24 -29 11 -58 67 -84 161 -23 84 -27
118 -27 233 0 118 2 142 23 193 29 73 62 112 109 128 48 17 182 15 250 -4 28
-8 52 -13 52 -11 0 2 -19 15 -42 29 l-43 26 50 -6 c28 -3 83 -13 124 -22z
m-127 -124 c29 -6 65 -18 80 -25 42 -22 97 -74 115 -108 l15 -31 -39 38 c-106
102 -287 102 -356 -1 -30 -44 -50 -105 -44 -129 4 -14 5 -12 6 5 2 35 29 94
59 125 42 45 81 60 147 60 102 0 207 -62 241 -142 21 -51 18 -54 -28 -24 -37
25 -51 28 -123 28 -70 0 -86 -3 -117 -25 -44 -29 -65 -64 -74 -117 -9 -56 19
-135 58 -168 l31 -26 -23 -24 c-27 -29 -71 -48 -101 -43 -22 3 -69 59 -69 81
0 5 11 7 25 5 22 -5 19 1 -24 48 -64 70 -85 131 -79 229 7 99 44 168 118 212
46 28 66 35 117 42 7 0 36 -4 65 -10z m-447 -1059 c-16 -4 -46 -8 -65 -8 -32
0 -33 1 -10 8 14 4 43 8 65 8 38 0 39 -1 10 -8z"/>
<path d="M1656 4278 c31 -21 56 -49 71 -78 31 -60 46 -187 34 -276 -12 -82 -7
-96 8 -24 34 158 -13 332 -104 386 -60 35 -66 30 -9 -8z"/>
<path d="M1041 3784 c0 -11 3 -14 6 -6 3 7 2 16 -1 19 -3 4 -6 -2 -5 -13z"/>
<path d="M1425 3530 c-21 -22 -67 -54 -101 -72 -35 -18 -61 -34 -59 -36 9 -10
126 63 165 102 24 25 42 46 39 46 -3 0 -22 -18 -44 -40z"/>
<path d="M3806 4438 c-43 -5 -128 -25 -190 -45 -207 -66 -268 -103 -317 -187
-37 -66 -38 -94 -1 -35 68 106 160 159 375 214 165 42 204 45 128 10 -63 -30
-64 -40 -1 -21 75 22 164 29 225 16 71 -15 123 -59 156 -133 33 -73 34 -230 2
-329 -33 -102 -73 -178 -119 -225 -50 -53 -72 -56 -38 -6 41 60 58 136 59 258
0 100 -3 115 -28 170 -54 116 -124 165 -234 165 -121 0 -224 -73 -279 -196
-44 -100 -40 -186 10 -219 19 -13 28 -12 76 6 30 11 57 23 60 26 3 3 -26 3
-65 0 -46 -4 -65 -3 -55 3 8 5 41 10 73 10 59 0 104 -17 157 -59 l25 -20 -61
6 c-66 6 -138 -11 -131 -30 4 -14 114 -90 207 -144 l64 -38 -49 -3 c-118 -8
-266 38 -328 102 -22 22 -35 31 -29 19 34 -64 140 -112 296 -134 l88 -12 61
-81 c33 -45 97 -118 141 -164 78 -81 79 -82 45 -76 -51 10 -214 70 -295 109
-132 64 -223 133 -377 290 -170 172 -197 207 -227 296 -20 57 -21 76 -15 174
l6 109 -20 -18 c-25 -23 -28 -34 -4 -15 15 13 16 11 9 -16 -4 -16 -10 -65 -13
-107 -10 -139 28 -232 148 -364 91 -100 150 -182 175 -244 32 -79 166 -182
293 -225 41 -13 76 -23 78 -22 1 2 -33 18 -78 36 -46 19 -114 58 -161 94 -109
83 -108 82 -108 99 0 8 -5 19 -12 26 -28 28 4 9 46 -27 44 -38 106 -71 266
-143 41 -18 95 -48 119 -67 62 -47 244 -164 236 -152 -3 6 -26 25 -50 42 -25
18 -43 34 -41 37 3 2 37 -1 76 -8 66 -11 72 -14 99 -53 16 -23 45 -76 66 -117
l37 -75 -33 30 c-72 64 -81 67 -17 5 63 -61 68 -70 93 -155 15 -49 29 -94 31
-100 11 -26 -9 106 -23 155 -17 60 -89 217 -122 266 l-21 31 53 6 c29 3 68 12
87 20 33 14 31 14 -60 10 -69 -3 -107 0 -140 11 l-45 15 50 -5 c28 -3 68 -7
90 -10 35 -5 26 1 -60 45 -105 53 -173 110 -228 191 -25 38 -17 32 56 -39 48
-47 88 -83 91 -80 2 2 -34 51 -80 108 -118 145 -115 132 -50 191 60 56 126
172 167 295 30 92 33 235 5 314 -35 102 -130 174 -243 187 -26 3 -59 6 -73 8
-14 1 -60 -1 -104 -6z m136 -203 c83 -55 127 -175 107 -296 -12 -74 -19 -89
-75 -155 l-42 -50 30 4 c34 5 33 -3 -5 -45 -26 -30 -48 -29 -77 2 l-23 24 31
35 c53 61 53 157 -2 237 -64 94 -238 111 -328 32 -16 -14 -17 -13 -9 14 27 93
112 187 198 216 66 23 143 16 195 -18z"/>
<path d="M3745 4209 c-16 -4 -44 -21 -61 -36 -16 -15 -23 -23 -14 -16 32 25
91 43 136 43 82 0 158 -61 184 -148 6 -21 8 -22 9 -7 1 12 -14 45 -31 75 -50
84 -131 116 -223 89z"/>
<path d="M4003 3975 c0 -27 2 -38 4 -22 2 15 2 37 0 50 -2 12 -4 0 -4 -28z"/>
<path d="M3511 4270 c-64 -96 -84 -159 -87 -275 l-2 -100 8 100 c5 60 16 123
29 156 24 64 79 151 90 144 5 -2 17 2 27 11 18 14 17 14 -5 3 -21 -10 -23 -9
-18 5 12 30 -1 16 -42 -44z"/>
<path d="M2030 4255 c0 -5 5 -17 10 -25 5 -8 10 -10 10 -5 0 6 -5 17 -10 25
-5 8 -10 11 -10 5z"/>
<path d="M3159 4193 c-13 -16 -12 -17 4 -4 16 13 21 21 13 21 -2 0 -10 -8 -17
-17z"/>
<path d="M3329 4133 c-32 -70 -37 -173 -10 -244 34 -91 53 -106 30 -24 -22 81
-24 164 -5 253 7 34 12 62 10 62 -2 0 -13 -21 -25 -47z"/>
<path d="M3005 4136 c-16 -12 -69 -39 -116 -60 -89 -38 -151 -82 -171 -119 -7
-13 8 -5 38 22 27 24 94 65 150 92 55 27 109 58 119 69 23 26 18 25 -20 -4z"/>
<path d="M2732 4020 c0 -14 2 -19 5 -12 2 6 2 18 0 25 -3 6 -5 1 -5 -13z"/>
<path d="M2253 3752 c68 -74 90 -128 85 -209 -3 -44 -1 -58 6 -46 5 9 9 43 9
74 0 82 -42 159 -118 212 -22 15 -18 7 18 -31z"/>
<path d="M2851 3753 c-22 -27 -48 -68 -56 -92 -17 -50 -20 -138 -5 -161 7 -10
8 -1 4 31 -9 63 16 141 65 212 22 31 39 57 36 57 -2 0 -22 -21 -44 -47z"/>
<path d="M3690 3546 c34 -37 70 -61 148 -97 57 -27 106 -49 110 -49 4 1 -44
27 -106 59 -63 32 -132 76 -155 97 l-42 39 45 -49z"/>
<path d="M2137 3531 c-56 -63 -58 -117 -9 -250 4 -10 -7 -7 -32 9 -56 34 -158
38 -256 11 -41 -12 -86 -21 -100 -22 -20 -1 -16 -5 25 -24 28 -13 58 -24 67
-24 11 -1 24 -16 33 -38 34 -81 99 -123 191 -123 58 0 90 -28 110 -98 33 -112
19 -180 -61 -290 -18 -26 -51 -81 -74 -122 -45 -83 -46 -83 -26 10 7 36 12 66
10 68 -1 2 -17 -36 -34 -85 -35 -95 -56 -183 -67 -281 l-7 -62 -33 76 c-31 73
-69 127 -203 294 -76 95 -116 176 -148 298 -25 97 -27 180 -7 282 4 19 4 32 0
29 -12 -11 -34 -212 -26 -234 4 -11 13 -53 19 -93 15 -96 61 -214 120 -304 26
-40 59 -93 74 -118 l26 -46 -70 34 c-66 32 -73 38 -95 89 -42 94 -75 224 -84
328 l-9 100 4 -100 c2 -55 13 -142 24 -193 18 -77 19 -101 10 -135 -20 -75
-62 -139 -172 -256 -124 -134 -169 -212 -192 -334 -17 -92 -19 -242 -5 -354
19 -139 107 -286 239 -398 33 -28 78 -78 100 -111 43 -65 148 -175 216 -227
l40 -30 -46 49 c-128 137 -263 407 -300 602 -15 79 -6 248 16 321 27 88 103
233 139 268 40 37 90 53 166 52 l55 0 -52 -19 c-78 -28 -167 -78 -199 -112
-26 -27 -22 -26 30 11 83 58 205 103 294 109 82 5 99 -10 30 -28 -128 -32
-168 -43 -165 -47 2 -2 36 3 76 12 39 8 82 14 96 13 42 -4 28 -26 -22 -37 -65
-14 -149 -47 -134 -52 8 -3 -2 -26 -29 -66 -22 -34 -43 -70 -44 -80 -2 -10
-20 -42 -39 -71 -69 -106 -115 -313 -89 -402 9 -29 10 -24 5 35 -10 139 51
317 144 416 54 58 174 129 218 129 22 0 26 -3 17 -12 -16 -16 -15 -31 1 -23 6
4 4 0 -5 -8 -10 -8 -18 -18 -18 -23 0 -4 -13 -22 -29 -39 -39 -40 -75 -113
-103 -210 -19 -69 -23 -103 -23 -245 l0 -165 44 -125 c24 -69 50 -137 57 -152
8 -16 11 -28 6 -28 -9 0 -143 137 -210 215 l-43 50 42 -65 c48 -74 180 -209
284 -292 39 -30 115 -81 170 -113 111 -63 195 -129 327 -254 48 -46 88 -80 88
-75 0 4 16 -14 36 -39 20 -26 39 -47 43 -47 3 0 17 21 31 46 35 68 204 240
317 325 54 40 119 90 146 112 51 42 54 40 32 -23 -20 -56 -19 -61 3 -25 18 28
250 267 374 384 55 51 57 52 48 23 -17 -62 -75 -155 -139 -225 l-66 -71 105
71 c240 164 427 410 480 634 19 79 21 110 16 194 -3 55 -12 125 -20 155 l-14
55 -1 -128 c-2 -215 -41 -349 -151 -514 -32 -48 -93 -124 -135 -168 -55 -58
-69 -69 -50 -40 37 58 110 238 134 329 34 128 24 250 -34 422 -29 87 -83 194
-97 194 -5 0 -6 5 -3 10 4 6 -3 26 -14 45 -14 24 -16 35 -8 36 37 4 -93 18
-178 19 -99 2 -100 2 -65 17 104 46 253 57 325 24 54 -24 128 -108 171 -195
19 -39 32 -60 28 -46 -25 92 -108 204 -182 248 -44 25 -55 27 -152 26 -87 -1
-117 -5 -175 -27 -38 -14 -71 -24 -73 -23 -8 9 50 106 68 116 33 18 208 24
285 11 109 -19 191 -74 268 -181 12 -17 11 -11 -3 15 -12 22 -57 88 -101 146
-136 182 -153 244 -115 400 15 57 28 140 30 184 2 44 2 64 -1 45 -10 -88 -36
-208 -63 -291 -17 -50 -30 -110 -30 -132 0 -51 26 -111 69 -159 l31 -36 -51
15 c-37 11 -86 14 -180 11 -71 -1 -129 0 -129 3 0 17 86 81 152 114 40 20 80
43 88 52 8 8 -14 1 -49 -17 -34 -17 -65 -29 -68 -27 -2 3 25 56 61 119 70 121
99 197 115 299 13 78 14 109 2 109 -4 0 -11 -28 -14 -63 -3 -35 -16 -89 -28
-121 -25 -68 -111 -198 -203 -309 -36 -43 -78 -102 -93 -130 -27 -49 -28 -50
-31 -21 -6 59 -34 151 -74 251 -41 102 -57 128 -38 62 38 -126 81 -315 77
-337 -4 -26 -4 -26 -6 3 -5 102 -77 276 -173 417 -73 107 -83 138 -67 222 20
111 50 156 103 156 88 0 161 44 195 114 11 26 27 46 35 46 7 0 35 10 62 22 46
20 47 22 24 28 -181 51 -283 53 -345 5 -32 -23 -37 -25 -31 -9 35 91 47 140
41 175 -8 49 -44 101 -71 105 l-21 3 20 -41 c30 -59 32 -130 8 -210 -12 -38
-30 -98 -41 -135 -11 -38 -24 -106 -28 -153 l-7 -85 -34 82 c-19 46 -36 81
-38 79 -2 -1 5 -32 16 -67 11 -35 29 -96 40 -135 16 -56 37 -92 92 -165 93
-124 122 -176 158 -286 40 -117 40 -161 4 -195 -39 -35 -86 -61 -172 -94 -82
-31 -81 -45 1 -18 74 24 137 57 176 93 32 29 32 30 32 7 0 -55 -132 -136 -289
-178 -94 -25 -88 -35 12 -20 99 16 174 49 228 101 l49 47 0 -59 c0 -54 -3 -62
-32 -90 -49 -45 -142 -85 -238 -101 l-85 -14 71 -1 c89 -1 160 20 219 64 25
19 47 35 50 35 8 0 5 -47 -5 -74 -11 -31 -36 -48 -137 -93 -66 -29 -72 -34
-38 -28 22 3 66 19 97 35 l57 30 -11 -25 c-6 -14 -37 -40 -67 -58 -52 -29 -62
-32 -141 -31 -62 1 -106 8 -162 27 -43 13 -78 23 -78 20 0 -2 28 -17 63 -33
119 -55 249 -57 330 -4 l38 25 -17 -33 c-51 -99 -108 -138 -203 -138 -105 0
-290 108 -306 179 -3 15 3 53 14 89 30 99 88 165 186 213 110 54 182 147 170
219 -8 50 -21 59 -28 20 -4 -16 -20 -44 -36 -62 l-29 -33 -22 27 c-28 36 -71
43 -183 28 -79 -11 -104 -10 -176 4 -97 19 -148 10 -179 -29 -11 -14 -24 -25
-29 -25 -10 0 -73 65 -73 75 1 56 -15 55 -26 -1 -14 -74 56 -167 165 -222 131
-64 211 -170 211 -278 0 -48 -3 -55 -40 -88 -48 -43 -162 -102 -226 -116 -93
-21 -207 40 -258 138 l-16 30 43 -23 c60 -33 142 -46 217 -34 58 9 178 54 169
64 -3 2 -34 -5 -69 -17 -45 -15 -92 -21 -155 -22 -80 -1 -96 2 -141 26 -96 51
-114 95 -21 53 96 -44 113 -36 20 9 -50 24 -96 52 -101 62 -6 11 -13 41 -17
69 l-8 50 39 -34 c74 -66 189 -102 314 -100 51 1 48 2 -47 19 -109 19 -204 58
-262 108 -31 26 -35 36 -39 91 -2 33 0 61 4 61 5 0 21 -15 36 -34 32 -40 127
-89 216 -111 87 -22 126 -15 47 9 -93 27 -240 102 -269 136 -44 53 -32 66 23
26 51 -38 181 -97 210 -95 15 0 -22 20 -150 79 -26 12 -61 36 -78 54 l-32 33
15 66 c20 86 87 218 170 335 37 52 75 111 86 132 31 60 70 207 69 259 l-1 46
-13 -60 c-32 -136 -34 -138 -54 -27 -7 34 -25 109 -42 165 -41 141 -47 225
-21 302 11 33 19 61 18 63 -2 1 -19 -15 -39 -37z m961 -289 c4 -14 -34 -16
-42 -3 -6 10 13 21 28 17 6 -1 12 -8 14 -14z m-1018 -1 c0 -12 -29 -23 -41
-15 -18 10 -9 24 16 24 14 0 25 -4 25 -9z m1100 -45 c-15 -46 -53 -76 -97 -76
-58 0 -93 25 -93 68 0 31 25 38 51 13 13 -12 28 -21 34 -21 18 0 55 30 55 45
0 15 40 25 54 14 4 -4 3 -23 -4 -43z m-1178 23 c5 -36 33 -47 69 -26 38 21 45
21 53 1 15 -39 -57 -91 -108 -78 -44 11 -98 87 -81 114 3 5 19 10 35 10 22 0
29 -5 32 -21z m-346 -809 c80 -39 142 -94 182 -159 l29 -47 -96 2 -96 2 85 -7
c94 -8 125 -20 133 -51 7 -28 -9 -26 -139 12 -86 26 -127 32 -194 32 -124 0
-167 -29 -231 -155 -38 -76 -37 -90 1 -20 41 75 77 119 114 142 44 28 191 22
296 -13 l75 -24 -98 -6 c-80 -5 -109 -12 -153 -34 -31 -15 -58 -32 -61 -37 -3
-6 -1 -7 6 -3 6 4 -2 -15 -19 -42 -100 -163 -144 -318 -144 -502 1 -112 4
-135 32 -220 l31 -95 -39 45 c-51 58 -141 233 -175 340 -39 122 -47 318 -17
417 24 79 68 150 115 186 18 13 64 40 102 60 39 20 66 36 62 37 -5 0 5 18 22
39 43 54 70 118 71 166 l1 40 19 -36 c14 -27 35 -44 86 -69z m833 -107 c78
-15 89 -15 175 1 50 9 100 14 111 10 31 -11 55 -35 55 -54 0 -15 -6 -17 -32
-11 -18 4 -44 5 -58 1 -14 -3 -85 -6 -158 -5 -93 0 -121 -2 -95 -8 21 -5 81
-6 133 -2 l95 6 -32 -33 c-31 -32 -51 -72 -88 -171 -9 -27 -19 -46 -22 -44 -2
3 -8 42 -12 88 l-8 84 -2 -67 c-1 -84 -19 -84 -46 0 -12 41 -31 70 -64 104
-46 46 -47 47 -22 51 14 2 1 4 -29 4 -30 0 -65 -4 -77 -8 -30 -11 -39 7 -16
33 37 42 70 45 192 21z m718 -95 c-3 -7 -5 -2 -5 12 0 14 2 19 5 13 2 -7 2
-19 0 -25z m-1394 -105 c-7 -2 -21 -2 -30 0 -10 3 -4 5 12 5 17 0 24 -2 18 -5z
m1668 -11 c26 -10 65 -59 55 -69 -2 -3 -17 4 -33 15 -51 36 -107 54 -193 62
-84 8 -83 9 30 5 63 -1 127 -7 141 -13z m-17 -47 c73 -37 114 -84 148 -172
126 -325 84 -570 -129 -758 -69 -61 -70 -59 -6 35 39 58 84 188 90 260 11 133
-42 285 -137 394 -54 61 -114 168 -102 181 4 5 3 6 -3 3 -5 -3 -21 5 -35 19
l-25 24 45 -7 c25 -4 56 -11 69 -16 13 -5 26 -6 28 -4 7 6 -95 36 -123 36 -35
0 -76 19 -68 31 4 8 38 10 98 7 77 -3 102 -9 150 -33z m-204 -37 c39 -27 64
-59 85 -110 l15 -38 -49 30 c-59 37 -111 93 -111 120 0 26 19 25 60 -2z
m-1350 -28 c0 -6 -7 -13 -15 -16 -8 -4 -13 -10 -10 -14 8 -13 -37 -19 -85 -11
l-45 7 40 18 c26 11 51 15 73 11 23 -4 32 -3 27 4 -3 6 -1 11 4 11 6 0 11 -5
11 -10z m-140 -96 c-29 -18 -62 -42 -74 -52 -12 -11 -28 -23 -36 -28 -17 -9 4
27 51 86 25 33 31 35 70 32 l42 -4 -53 -34z m1461 4 c21 -11 36 -25 33 -30 -3
-5 0 -7 7 -6 19 4 83 -129 109 -223 11 -43 27 -123 34 -176 8 -54 14 -84 15
-68 0 17 -6 73 -14 125 -21 140 -72 278 -131 357 l-24 31 66 -36 c134 -75 214
-227 214 -409 0 -174 -82 -326 -315 -581 -55 -60 -101 -109 -103 -107 -1 1 9
31 22 66 55 147 52 147 -86 14 -69 -66 -167 -161 -219 -210 -105 -101 -193
-212 -243 -304 -33 -62 -33 -62 -48 -39 -18 29 -98 215 -98 229 0 16 -81 221
-86 217 -2 -3 12 -48 32 -102 19 -54 33 -100 32 -101 -5 -5 -201 244 -247 313
-88 131 -126 257 -118 387 8 117 13 125 47 71 16 -24 53 -62 83 -85 55 -40 67
-61 82 -141 8 -45 54 -168 65 -175 5 -3 -1 21 -12 52 -24 68 -30 194 -10 201
6 2 10 8 6 13 -3 5 0 9 6 9 6 0 8 4 5 10 -9 15 71 -30 109 -62 19 -16 50 -51
68 -79 l32 -50 19 25 c22 31 27 32 54 7 21 -20 21 -20 38 25 9 25 14 51 11 59
-7 18 34 49 48 35 15 -15 -10 -114 -52 -203 -22 -45 -72 -131 -112 -192 -40
-60 -68 -105 -63 -100 85 89 222 247 266 305 31 41 62 82 70 91 7 8 11 21 9
29 -3 7 0 10 7 6 7 -4 9 -1 5 8 -12 31 17 83 71 130 30 26 62 61 71 79 l16 31
13 -30 c15 -33 16 -31 20 51 14 234 30 325 56 309 17 -10 50 -86 69 -157 10
-40 19 -61 19 -47 1 36 -22 116 -53 181 -22 50 -24 61 -14 90 23 69 17 75 151
-149 95 -158 101 -170 105 -233 4 -58 -4 -109 -32 -204 -4 -11 3 -2 14 21 30
63 44 171 30 241 -7 32 -15 71 -18 88 -4 23 -6 26 -11 12 -5 -13 -23 11 -70
90 -35 60 -81 134 -102 166 -27 40 -36 63 -31 74 7 12 14 10 42 -13 27 -23 31
-24 22 -8 -6 11 -18 26 -26 34 -16 13 -21 42 -9 53 9 10 11 9 54 -15z m-1261
-126 c14 -31 13 -47 -4 -61 -29 -24 -96 -149 -120 -225 -37 -112 -32 -116 13
-9 40 97 87 178 122 209 20 18 21 17 43 -11 21 -26 24 -43 29 -152 2 -68 1
-140 -4 -161 -13 -58 -10 -211 6 -279 30 -129 92 -236 235 -408 88 -106 145
-187 179 -252 23 -46 26 -57 12 -48 -13 7 -275 306 -335 380 -27 33 -53 65
-58 70 -20 21 7 -32 49 -98 44 -69 44 -69 13 -47 -18 13 -66 57 -109 99 -81
80 -119 144 -145 241 -10 37 -15 46 -15 28 -1 -27 32 -129 51 -158 6 -8 -11 8
-36 35 -70 74 -103 130 -133 220 -24 72 -27 94 -26 220 0 109 5 157 21 217 27
99 66 179 106 215 17 15 24 19 15 8 -23 -29 -72 -115 -65 -115 3 0 13 14 22
31 8 17 34 51 56 75 45 49 45 49 78 -24z m583 -308 c3 -3 8 25 12 63 9 100 9
99 57 61 l43 -33 -25 35 -25 35 50 -29 c28 -15 65 -44 84 -64 l33 -37 -21 36
c-19 33 -20 37 -5 43 14 5 14 9 3 23 -11 14 -7 13 21 -4 19 -11 34 -24 33 -29
-2 -14 127 -4 158 11 l25 14 -8 -71 c-9 -78 -23 -115 -60 -170 -26 -37 -26
-38 -32 -13 -8 31 -22 32 -30 2 -3 -13 -15 -36 -26 -50 l-21 -26 -33 36 -33
37 0 -28 c0 -15 -6 -33 -12 -39 -8 -8 -11 1 -11 34 l0 44 -35 -60 c-19 -33
-59 -87 -88 -119 l-53 -59 -47 55 c-25 30 -62 81 -82 114 l-36 59 6 -40 c6
-37 5 -39 -9 -21 -9 11 -16 31 -16 44 0 22 -2 23 -16 11 -9 -8 -28 -31 -41
-52 l-24 -38 -23 28 c-12 15 -34 46 -49 67 -22 33 -27 37 -33 22 -6 -15 -9
-14 -25 11 -23 36 -49 135 -49 185 l0 39 31 -17 c20 -10 49 -15 79 -12 l48 3
-14 -34 c-20 -48 -18 -49 16 -5 46 60 50 64 63 64 7 0 6 -4 -3 -10 -11 -7 -5
-10 23 -10 l38 0 -22 -32 -22 -33 39 36 c48 45 80 63 89 49 4 -6 17 -2 33 11
l27 21 6 -77 c4 -42 9 -78 12 -81z m251 -315 c9 -56 -24 -123 -99 -204 l-56
-60 31 63 c17 35 38 95 47 135 14 67 46 122 63 112 4 -3 10 -23 14 -46z"/>
<path d="M3348 1973 c7 -3 16 -2 19 1 4 3 -2 6 -13 5 -11 0 -14 -3 -6 -6z"/>
<path d="M3450 1934 c25 -14 61 -40 80 -57 33 -30 33 -30 10 -3 -27 31 -107
86 -124 86 -6 0 9 -12 34 -26z"/>
<path d="M3183 1385 c0 -27 2 -38 4 -22 2 15 2 37 0 50 -2 12 -4 0 -4 -28z"/>
<path d="M3411 1304 c0 -11 3 -14 6 -6 3 7 2 16 -1 19 -3 4 -6 -2 -5 -13z"/>
<path d="M2806 1015 c-9 -26 -7 -32 5 -12 6 10 9 21 6 23 -2 3 -7 -2 -11 -11z"/>
<path d="M2360 870 c6 -11 13 -20 16 -20 2 0 0 9 -6 20 -6 11 -13 20 -16 20
-2 0 0 -9 6 -20z"/>
<path d="M2734 814 l-21 -45 27 26 c18 17 26 33 23 46 -3 10 -6 19 -7 19 0 0
-10 -20 -22 -46z"/>
<path d="M2819 743 l-24 -28 28 24 c15 14 27 26 27 28 0 8 -8 1 -31 -24z"/>
<path d="M2738 651 c-46 -51 -139 -174 -111 -146 20 20 173 205 169 205 -2 0
-28 -27 -58 -59z"/>
<path d="M2455 1559 c-4 -6 -5 -12 -2 -15 2 -3 7 2 10 11 7 17 1 20 -8 4z"/>
<path d="M2840 1532 c0 -5 12 -19 27 -33 l26 -24 -19 33 c-17 30 -34 42 -34
24z"/>
<path d="M1885 3401 c-12 -5 2 -8 40 -7 42 0 73 -6 103 -20 49 -25 57 -13 10
16 -34 21 -114 26 -153 11z"/>
<path d="M3083 3390 c-18 -11 -33 -25 -33 -31 0 -6 17 0 37 12 28 18 51 23
101 23 39 0 57 3 46 7 -38 15 -118 9 -151 -11z"/>
<path d="M1544 3305 c-9 -14 -15 -27 -13 -30 3 -2 12 10 21 26 21 36 15 39 -8
4z"/>
<path d="M3596 3305 c22 -65 54 -204 63 -276 l10 -84 -5 80 c-5 90 -36 233
-60 273 -8 15 -12 18 -8 7z"/>
<path d="M3676 3258 c24 -47 100 -124 181 -184 84 -63 125 -114 187 -239 51
-101 77 -177 105 -297 11 -46 20 -74 20 -63 1 27 -42 206 -70 286 -35 104
-108 237 -158 288 -25 26 -76 64 -113 84 -73 41 -120 83 -144 128 -8 16 -17
29 -20 29 -2 0 3 -14 12 -32z"/>
<path d="M1208 3243 c7 -3 16 -2 19 1 4 3 -2 6 -13 5 -11 0 -14 -3 -6 -6z"/>
<path d="M1521 3234 c0 -11 3 -14 6 -6 3 7 2 16 -1 19 -3 4 -6 -2 -5 -13z"/>
<path d="M1420 3189 c-14 -12 -60 -39 -103 -60 -99 -50 -149 -96 -187 -171
-40 -82 -40 -122 1 -48 38 70 78 111 159 166 36 23 88 63 115 88 51 46 61 63
15 25z"/>
<path d="M3290 3152 c0 -7 -16 -29 -35 -51 -36 -40 -86 -69 -140 -82 l-30 -7
28 -1 c37 -1 96 24 130 57 32 30 62 81 53 90 -3 3 -6 0 -6 -6z"/>
<path d="M1841 3111 c27 -50 78 -88 129 -96 l35 -5 -30 12 c-40 17 -105 58
-105 66 -1 4 -12 21 -26 37 l-26 30 23 -44z"/>
<path d="M1671 3046 c-16 -81 -10 -215 12 -268 8 -20 40 -63 71 -96 50 -56 60
-75 79 -157 4 -15 5 -13 6 7 3 70 24 132 59 172 20 22 27 33 16 24 -27 -24
-34 -23 -34 5 0 17 -11 30 -40 46 -86 48 -138 141 -150 271 l-6 65 -13 -69z"/>
<path d="M3417 3035 c-8 -112 -51 -196 -126 -246 -61 -41 -77 -69 -59 -102 6
-12 22 -51 35 -87 19 -56 23 -60 23 -32 0 45 14 68 76 128 71 68 89 129 81
264 -3 52 -10 109 -15 125 -7 25 -10 18 -15 -50z"/>
<path d="M4142 3029 c18 -25 52 -80 74 -124 97 -188 142 -351 151 -540 5 -100
8 -123 15 -100 15 50 12 244 -5 320 -43 193 -151 404 -238 466 l-31 22 34 -44z"/>
<path d="M951 2985 c-100 -111 -161 -282 -187 -533 -20 -190 -14 -344 16 -452
12 -41 25 -79 30 -84 5 -5 2 12 -5 39 -34 110 -37 204 -15 422 11 114 29 241
40 284 32 124 90 251 153 332 46 59 25 54 -32 -8z"/>
<path d="M849 2993 l-24 -28 28 24 c25 23 32 31 24 31 -2 0 -14 -12 -28 -27z"/>
<path d="M3592 2995 c0 -16 2 -22 5 -12 2 9 2 23 0 30 -3 6 -5 -1 -5 -18z"/>
<path d="M1049 2993 c-13 -16 -12 -17 4 -4 9 7 17 15 17 17 0 8 -8 3 -21 -13z"/>
<path d="M4122 2918 c77 -123 134 -250 164 -368 24 -91 28 -123 27 -245 0
-169 -19 -250 -93 -405 -28 -58 -41 -94 -30 -80 39 48 110 205 131 290 49 193
-7 517 -124 715 -34 58 -116 175 -123 175 -2 0 19 -37 48 -82z"/>
<path d="M2369 2943 c-16 -49 -68 -161 -113 -243 l-36 -65 36 40 c47 52 100
159 119 237 16 71 13 88 -6 31z"/>
<path d="M1002 2928 c-46 -68 -107 -196 -135 -284 -48 -152 -57 -301 -26 -444
18 -86 21 -49 3 51 -19 109 -14 206 16 323 25 98 86 243 138 329 46 75 48 89
4 25z"/>
<path d="M3692 2950 c0 -14 2 -19 5 -12 2 6 2 18 0 25 -3 6 -5 1 -5 -13z"/>
<path d="M2731 2954 c-2 -27 41 -143 72 -196 35 -57 108 -150 114 -144 2 2
-14 30 -36 62 -41 62 -119 208 -138 259 -6 17 -11 25 -12 19z"/>
<path d="M3939 2840 c107 -120 108 -121 86 -85 -32 53 -84 112 -127 146 -33
26 -24 12 41 -61z"/>
<path d="M1201 2874 c-50 -45 -126 -143 -150 -194 -10 -21 -8 -20 11 5 26 34
138 166 176 208 39 42 20 32 -37 -19z"/>
<path d="M1422 2900 c0 -14 2 -19 5 -12 2 6 2 18 0 25 -3 6 -5 1 -5 -13z"/>
<path d="M3705 2855 c3 -38 12 -101 21 -140 9 -38 16 -76 17 -82 0 -7 5 -13
10 -13 5 0 7 -7 3 -15 -3 -8 0 -14 6 -12 6 1 13 -4 16 -12 3 -9 0 -11 -8 -6
-7 4 -5 -5 4 -24 9 -17 19 -31 22 -31 2 0 0 9 -6 19 -17 33 -12 32 67 -16 173
-105 223 -204 223 -437 0 -55 -7 -130 -14 -166 -25 -117 -26 -126 -6 -66 33
97 45 230 32 349 -20 182 -52 248 -162 334 -164 129 -186 161 -214 308 l-15
80 4 -70z"/>
<path d="M1396 2794 c-31 -135 -71 -193 -189 -271 -40 -26 -91 -67 -114 -90
-126 -125 -192 -426 -148 -677 20 -112 45 -183 94 -265 60 -100 76 -115 36
-33 -89 181 -123 349 -106 517 12 114 31 186 71 265 56 110 96 154 263 282 19
15 43 46 53 68 12 28 20 36 26 27 6 -8 8 -3 6 13 -1 14 6 69 16 122 22 119 17
148 -8 42z"/>
<path d="M3770 2797 c0 -35 80 -157 103 -157 6 0 1 10 -11 23 -11 12 -37 49
-56 81 -20 33 -36 57 -36 53z"/>
<path d="M1316 2762 c-4 -10 -22 -45 -41 -78 l-35 -59 34 37 c19 20 39 53 45
74 11 39 8 61 -3 26z"/>
<path d="M3885 2754 c6 -5 28 -25 50 -44 l40 -35 -30 33 c-17 19 -39 38 -50
44 -11 6 -15 7 -10 2z"/>
<path d="M1147 2668 c-76 -76 -77 -77 -12 -18 107 97 110 100 102 100 -4 0
-45 -37 -90 -82z"/>
<path d="M3180 2736 c0 -2 8 -10 18 -17 15 -13 16 -12 3 4 -13 16 -21 21 -21
13z"/>
<path d="M1034 2548 c-54 -65 -154 -317 -154 -389 0 -11 -3 -19 -7 -19 -5 0
-9 -57 -11 -128 -3 -103 1 -142 17 -206 18 -69 80 -221 86 -214 2 2 -9 46 -23
98 -24 88 -26 111 -26 295 1 283 29 417 114 539 44 63 46 73 4 24z"/>
<path d="M1361 2563 c-1 -6 -4 -20 -7 -30 -5 -17 -5 -17 6 0 6 10 9 23 6 30
-3 9 -5 9 -5 0z"/>
<path d="M3620 2511 c0 -36 54 -108 160 -211 95 -93 123 -127 146 -177 15 -34
30 -61 32 -58 2 2 -11 34 -28 72 -27 56 -53 88 -146 178 -68 67 -123 129 -138
159 -14 27 -26 44 -26 37z"/>
<path d="M1326 2473 c-6 -14 -5 -15 5 -6 7 7 10 15 7 18 -3 3 -9 -2 -12 -12z"/>
<path d="M4118 2297 c11 -42 16 -106 15 -202 0 -127 -4 -153 -36 -280 -39
-150 -105 -297 -192 -429 -59 -89 -32 -66 47 38 33 45 88 140 123 211 103 210
156 404 154 557 -2 86 -3 84 -14 -15 -4 -32 -9 -57 -11 -54 -2 2 -14 37 -25
77 -34 124 -90 213 -61 97z"/>
<path d="M986 1978 c-6 -57 7 -205 20 -217 5 -5 -6 271 -11 277 -1 2 -6 -25
-9 -60z"/>
<path d="M1643 1935 c-18 -8 -33 -16 -33 -19 0 -3 15 1 33 8 17 7 39 16 47 19
13 5 13 5 0 6 -8 0 -30 -6 -47 -14z"/>
<path d="M3811 1874 c0 -11 3 -14 6 -6 3 7 2 16 -1 19 -3 4 -6 -2 -5 -13z"/>
<path d="M3973 1705 c0 -38 2 -53 4 -32 2 20 2 52 0 70 -2 17 -4 1 -4 -38z"/>
<path d="M3963 1595 c0 -22 2 -30 4 -17 2 12 2 30 0 40 -3 9 -5 -1 -4 -23z"/>
<path d="M3951 1534 c0 -11 3 -14 6 -6 3 7 2 16 -1 19 -3 4 -6 -2 -5 -13z"/>
</g>
</svg>